<svg width="18" height="20" viewBox="0 0 18 20" fill="none" xmlns="http://www.w3.org/2000/svg">
<path fill-rule="evenodd" clip-rule="evenodd" d="M10.497 2.898L10.55 3.698L11.244 4.098C12.596 4.878 13.5 6.334 13.5 8V10.892C13.5 11.889 13.77 12.867 14.284 13.722L15.35 15.5H2.649L3.716 13.722C4.229 12.867 4.5 11.889 4.5 10.892V8C4.5 6.334 5.404 4.878 6.756 4.098L7.45 3.698L7.503 2.898C7.555 2.118 8.206 1.5 9 1.5C9.794 1.5 10.445 2.118 10.497 2.898ZM3 8C3 5.776 4.21 3.835 6.007 2.799C6.11 1.236 7.41 0 9 0C10.59 0 11.89 1.236 11.993 2.799C13.79 3.835 15 5.776 15 8V10.892C15 11.617 15.197 12.328 15.57 12.95L17.091 15.485C17.491 16.152 17.011 17 16.234 17H12C12 17.796 11.684 18.559 11.121 19.121C10.559 19.684 9.796 20 9 20C8.204 20 7.441 19.684 6.879 19.121C6.316 18.56 6 17.796 6 17H1.766C0.989 17 0.509 16.152 0.909 15.485L2.43 12.95C2.803 12.328 3 11.617 3 10.892V8ZM7.5 17C7.5 17.398 7.658 17.78 7.94 18.06C8.22 18.342 8.602 18.5 9 18.5C9.398 18.5 9.78 18.342 10.06 18.06C10.342 17.78 10.5 17.398 10.5 17H7.5Z" fill="#F1F1F1"/>
</svg>
