<svg width="18" height="17" viewBox="0 0 18 17" fill="none" xmlns="http://www.w3.org/2000/svg">
<g clip-path="url(#clip0_2052_65)">
<path d="M14 0H13H3.57001C2.50001 0 1.59001 0.67 1.38001 1.61L0.0400069 7.61C-0.229993 8.85 0.820007 10 2.23001 10H6.46001L4.94001 14.94C4.62001 15.97 5.46001 17 6.62001 17C7.20001 17 7.76001 16.76 8.14001 16.35L14 10H18V0H14ZM7.40001 15.67C7.21001 15.88 6.92001 16 6.62001 16C6.36001 16 6.12001 15.89 5.99001 15.7C5.92001 15.6 5.84001 15.44 5.90001 15.23L7.42001 10.29L7.82001 9H6.46001H2.23001C1.82001 9 1.43001 8.83 1.20001 8.54C1.08001 8.39 0.950007 8.14 1.02001 7.82L2.36001 1.82C2.46001 1.35 2.97001 1 3.57001 1H13V9.61L7.40001 15.67ZM17 9H14V1H17V9Z" fill="#F1F1F1"/>
</g>
<defs>
<clipPath id="clip0_2052_65">
<rect width="18" height="17" fill="white"/>
</clipPath>
</defs>
</svg>
