<svg width="25" height="23" viewBox="0 0 25 23" fill="none" xmlns="http://www.w3.org/2000/svg">
<g clip-path="url(#clip0_2052_49)">
<mask id="mask0_2052_49" style="mask-type:luminance" maskUnits="userSpaceOnUse" x="-30" y="-31" width="86" height="86">
<path d="M56 -31H-30V55H56V-31Z" fill="white"/>
</mask>
<g mask="url(#mask0_2052_49)">
<mask id="mask1_2052_49" style="mask-type:luminance" maskUnits="userSpaceOnUse" x="-21" y="-23" width="67" height="68">
<path d="M-20.9302 -22.4876H45.5765V44.0191H-20.9302V-22.4876Z" fill="white"/>
</mask>
<g mask="url(#mask1_2052_49)">
<mask id="mask2_2052_49" style="mask-type:luminance" maskUnits="userSpaceOnUse" x="-21" y="-23" width="67" height="68">
<path d="M-20.9302 -22.4876H45.5765V44.0191H-20.9302V-22.4876Z" fill="white"/>
</mask>
<g mask="url(#mask2_2052_49)">
<path d="M6.78093 9.38019H-0.146851V23.2357H6.78093V9.38019ZM21.7034 9.38019H15.8425L17.9485 2.53555C18.3919 1.10843 17.228 -0.318695 15.6208 -0.318695C14.8172 -0.318695 14.0412 0.0138379 13.5147 0.581916L5.39537 9.38019V23.2357H19.8467C21.3154 23.2357 22.5901 22.3074 22.8811 21.005L24.7377 12.6917C25.1118 10.9736 23.657 9.38019 21.7034 9.38019ZM5.39537 21.8502H1.23871V10.7657H5.39537V21.8502ZM23.3799 12.3868L21.5232 20.7002C21.3847 21.3652 20.6781 21.8502 19.8467 21.8502H6.78093V9.92056L14.54 1.52409C14.8033 1.23313 15.2051 1.06686 15.6208 1.06686C15.981 1.06686 16.3136 1.21927 16.4937 1.48253C16.5907 1.62108 16.7015 1.84277 16.6184 2.13374L14.5123 8.97838L13.9581 10.7657H15.8286H21.6895C22.2576 10.7657 22.7979 11.0013 23.1166 11.4031C23.2968 11.6109 23.4769 11.9573 23.3799 12.3868Z" fill="#F1F1F1"/>
</g>
</g>
</g>
</g>
<defs>
<clipPath id="clip0_2052_49">
<rect width="25" height="23" fill="white"/>
</clipPath>
</defs>
</svg>
