<svg width="18" height="18" viewBox="0 0 18 18" fill="none" xmlns="http://www.w3.org/2000/svg">
<path fill-rule="evenodd" clip-rule="evenodd" d="M13.296 13.996C11.7383 15.372 9.70624 16.0877 7.63006 15.9917C5.55388 15.8956 3.59658 14.9954 2.17255 13.4815C0.748526 11.9676 -0.0304254 9.95889 0.000618868 7.88072C0.0316631 5.80256 0.870266 3.81805 2.33888 2.34736C3.80749 0.876673 5.79081 0.0352658 7.86893 0.00128423C9.94705 -0.0326973 11.9568 0.743414 13.4727 2.1653C14.9886 3.58718 15.8917 5.54321 15.9906 7.61925C16.0896 9.69529 15.3768 11.7284 14.003 13.288L17.912 17.198L17.205 17.905L13.296 13.996ZM15 8.00001C15 6.14349 14.2625 4.36301 12.9497 3.05026C11.637 1.7375 9.85651 1.00001 8 1.00001C6.14348 1.00001 4.363 1.7375 3.05025 3.05026C1.7375 4.36301 0.999998 6.14349 0.999997 8.00001C0.999997 8.91926 1.18106 9.82951 1.53284 10.6788C1.88462 11.5281 2.40024 12.2997 3.05025 12.9498C3.70026 13.5998 4.47193 14.1154 5.32121 14.4672C6.17049 14.8189 7.08074 15 8 15C8.91925 15 9.8295 14.8189 10.6788 14.4672C11.5281 14.1154 12.2997 13.5998 12.9497 12.9498C13.5998 12.2997 14.1154 11.5281 14.4672 10.6788C14.8189 9.82951 15 8.91926 15 8.00001Z" fill="#F1F1F1"/>
</svg>
